nColumns=19
nRows=55
DataType=double
version=3
OpenSimVersion=4.1
endheader
time	ground_force_calcn_l_vx	ground_force_calcn_l_vy	ground_force_calcn_l_vz	ground_force_calcn_l_px	ground_force_calcn_l_py	ground_force_calcn_l_pz	ground_force_calcn_l_mx	ground_force_calcn_l_my	ground_force_calcn_l_mz	ground_force_calcn_r_vx	ground_force_calcn_r_vy	ground_force_calcn_r_vz	ground_force_calcn_r_px	ground_force_calcn_r_py	ground_force_calcn_r_pz	ground_force_calcn_r_mx	ground_force_calcn_r_my	ground_force_calcn_r_mz
1.20752	-2.39396	335.613	13.827	-0.246656	-2.75088e-17	0.204898	0.0651409	-9.13219	-0.376239	-28.5694	383.016	-8.8253	-0.239124	-2.65639e-17	-0.158841	-0.176587	2.36742	-0.0545491
1.21749	-3.03609	334.656	15.0225	-0.24545	-2.73816e-17	0.203687	0.0799593	-8.81361	-0.395636	-28.7218	383.57	-9.55528	-0.238504	-2.64955e-17	-0.158119	-0.168523	2.25056	-0.0560648
1.22747	-3.47835	333.711	16.2012	-0.244338	-2.72642e-17	0.202608	0.088536	-8.4941	-0.412377	-28.746	383.954	-10.3247	-0.237931	-2.64325e-17	-0.157399	-0.162323	2.16811	-0.0583016
1.23745	-3.7022	332.8	17.3282	-0.243346	-2.71591e-17	0.201688	0.0911037	-8.18954	-0.426413	-28.6169	384.192	-11.1096	-0.237386	-2.63728e-17	-0.156673	-0.157693	2.11708	-0.0612191
1.24743	-3.68465	331.957	18.3595	-0.242499	-2.70693e-17	0.200964	0.0879055	-7.91956	-0.438006	-28.3396	384.315	-11.8944	-0.236874	-2.63172e-17	-0.155964	-0.155363	2.10689	-0.0652076
1.25741	-3.4318	331.24	19.2841	-0.241813	-2.69967e-17	0.200462	0.0796529	-7.68817	-0.447589	-27.9404	384.402	-12.6558	-0.236382	-2.62641e-17	-0.155307	-0.15555	2.14005	-0.0704579
1.26739	-2.97218	330.699	20.0999	-0.241258	-2.69378e-17	0.20016	0.0672999	-7.48811	-0.455128	-27.4281	384.512	-13.3846	-0.235877	-2.62098e-17	-0.154698	-0.157349	2.20586	-0.0767844
1.27737	-2.38765	330.337	20.8084	-0.240829	-2.68923e-17	0.199989	0.0528854	-7.31682	-0.460896	-26.8348	384.669	-14.079	-0.23537	-2.61555e-17	-0.154125	-0.159213	2.28227	-0.0835317
1.28735	-1.77624	330.136	21.4479	-0.24054	-2.68621e-17	0.199906	0.0386026	-7.17476	-0.466123	-26.2054	384.884	-14.754	-0.23489	-2.61042e-17	-0.153582	-0.161039	2.36522	-0.0906675
1.29733	-1.19287	330.087	22.0672	-0.240369	-2.68448e-17	0.199884	0.0254812	-7.05109	-0.471384	-25.5672	385.165	-15.416	-0.234441	-2.60565e-17	-0.153066	-0.163294	2.45999	-0.0984595
1.30731	-0.67363	330.176	22.7169	-0.240236	-2.68318e-17	0.199888	0.0141355	-6.92844	-0.476693	-24.9389	385.509	-16.0614	-0.234024	-2.60126e-17	-0.152564	-0.165395	2.5567	-0.106519
1.31729	-0.265072	330.38	23.4221	-0.2401	-2.68185e-17	0.199883	0.00545955	-6.80467	-0.482413	-24.3467	385.913	-16.7201	-0.233626	-2.59707e-17	-0.15207	-0.167105	2.64874	-0.114759
1.32727	0.0327733	330.711	24.1906	-0.239931	-2.68015e-17	0.199859	-0.000661017	-6.67022	-0.487909	-23.8406	386.339	-17.4091	-0.233276	-2.59341e-17	-0.151595	-0.168065	2.72351	-0.122726
1.33725	0.237217	331.201	25.0039	-0.239703	-2.67773e-17	0.199793	-0.00466623	-6.51497	-0.491846	-23.4512	386.747	-18.1445	-0.232984	-2.59037e-17	-0.151141	-0.168032	2.77112	-0.130009
1.34723	0.35055	331.883	25.8475	-0.239386	-2.67426e-17	0.199693	-0.00670737	-6.35021	-0.494562	-23.219	387.062	-18.9376	-0.232746	-2.58791e-17	-0.150711	-0.167199	2.78722	-0.136369
1.35721	0.362756	332.789	26.7017	-0.238984	-2.66981e-17	0.199558	-0.00673903	-6.18232	-0.496045	-23.1772	387.201	-19.7919	-0.232559	-2.58598e-17	-0.150305	-0.165568	2.76599	-0.141385
1.36719	0.299985	333.94	27.5591	-0.238513	-2.66451e-17	0.1994	-0.00539782	-6.00879	-0.495888	-23.3339	387.117	-20.6942	-0.232413	-2.58445e-17	-0.149928	-0.163348	2.71	-0.144869
1.37717	0.170196	335.321	28.4008	-0.238011	-2.65878e-17	0.199194	-0.00295362	-5.81923	-0.492875	-23.675	386.786	-21.6451	-0.232325	-2.58355e-17	-0.149577	-0.161044	2.63103	-0.147236
1.38715	-0.0348647	336.864	29.2204	-0.237507	-2.65294e-17	0.198937	0.000582157	-5.62482	-0.48791	-24.1708	386.221	-22.6339	-0.232298	-2.58329e-17	-0.149243	-0.158546	2.53337	-0.148464
1.39713	-0.296786	338.476	30.0261	-0.237009	-2.64712e-17	0.198654	0.00475726	-5.42552	-0.481295	-24.7677	385.478	-23.6469	-0.232292	-2.58324e-17	-0.148912	-0.155563	2.42114	-0.148523
1.4071	-0.576879	340.044	30.8142	-0.236535	-2.64148e-17	0.198352	0.0088374	-5.20925	-0.472052	-25.404	384.62	-24.6699	-0.232289	-2.58317e-17	-0.148574	-0.151715	2.29698	-0.147331
1.41708	-0.855965	341.485	31.5799	-0.236116	-2.6364e-17	0.198039	0.0124975	-4.98582	-0.46108	-26.0285	383.699	-25.6919	-0.232312	-2.58339e-17	-0.148223	-0.147321	2.17173	-0.145416
1.42706	-1.11835	342.726	32.3134	-0.235789	-2.63234e-17	0.197737	0.0155522	-4.7661	-0.449364	-26.5891	382.772	-26.6922	-0.232356	-2.58383e-17	-0.147859	-0.142857	2.05653	-0.14341
1.43704	-1.33705	343.766	33.0117	-0.235537	-2.62911e-17	0.19747	0.0177039	-4.55181	-0.437108	-27.032	381.882	-27.6264	-0.232406	-2.58432e-17	-0.147481	-0.137727	1.94568	-0.140756
1.44702	-1.49248	344.631	33.6527	-0.235344	-2.62652e-17	0.197257	0.0188359	-4.34942	-0.424714	-27.3296	381.061	-28.4729	-0.232439	-2.58461e-17	-0.147098	-0.132636	1.84936	-0.138185
1.457	-1.56767	345.382	34.2188	-0.235203	-2.62453e-17	0.197103	0.0188809	-4.15975	-0.412129	-27.4689	380.334	-29.2247	-0.232443	-2.5846e-17	-0.14671	-0.12762	1.76702	-0.135777
1.46698	-1.55842	346.077	34.7002	-0.235123	-2.6232e-17	0.197004	0.0179329	-3.98234	-0.399298	-27.4291	379.745	-29.8966	-0.232412	-2.58422e-17	-0.146309	-0.12306	1.70371	-0.13413
1.47696	-1.45034	346.773	35.0925	-0.235084	-2.62234e-17	0.196976	0.015986	-3.82221	-0.386798	-27.2211	379.34	-30.4852	-0.232353	-2.58355e-17	-0.145901	-0.119396	1.66385	-0.133713
1.48694	-1.26524	347.519	35.3868	-0.235054	-2.62162e-17	0.197007	0.0134374	-3.6908	-0.375824	-26.8561	379.174	-31.0073	-0.23228	-2.58276e-17	-0.145483	-0.116394	1.64333	-0.134385
1.49692	-0.994054	348.367	35.5873	-0.235011	-2.62087e-17	0.197103	0.0102803	-3.60273	-0.368035	-26.3428	379.305	-31.4768	-0.232183	-2.58173e-17	-0.145058	-0.113909	1.64016	-0.136109
1.5069	-0.638776	349.373	35.7082	-0.234956	-2.62006e-17	0.197234	0.00649251	-3.55102	-0.362938	-25.7106	379.776	-31.9083	-0.232064	-2.58048e-17	-0.144633	-0.111672	1.64953	-0.138591
1.51688	-0.211586	350.603	35.7595	-0.23489	-2.61923e-17	0.197384	0.00213594	-3.5393	-0.360988	-24.9931	380.606	-32.3036	-0.231914	-2.5789e-17	-0.144223	-0.109661	1.66997	-0.141737
1.52686	0.297874	352.093	35.7556	-0.234835	-2.6186e-17	0.197557	-0.00301414	-3.56277	-0.361806	-24.2172	381.77	-32.667	-0.231756	-2.57722e-17	-0.143835	-0.107399	1.69308	-0.144872
1.53684	0.876608	353.864	35.7005	-0.234809	-2.6183e-17	0.197729	-0.00891928	-3.60048	-0.363244	-23.4144	383.213	-32.9925	-0.231592	-2.57546e-17	-0.143464	-0.104767	1.71468	-0.147625
1.54682	1.49772	355.88	35.6042	-0.234826	-2.61846e-17	0.197885	-0.0153262	-3.64172	-0.364338	-22.6547	384.801	-33.2965	-0.231459	-2.57408e-17	-0.143137	-0.102953	1.74871	-0.151314
1.5568	2.11905	358.06	35.4933	-0.234889	-2.61912e-17	0.198031	-0.0218139	-3.68595	-0.365376	-21.9813	386.349	-33.5816	-0.23137	-2.57319e-17	-0.142858	-0.101738	1.78817	-0.155428
1.56678	2.69777	360.269	35.3897	-0.234963	-2.61992e-17	0.198176	-0.0279497	-3.73249	-0.366647	-21.4307	387.647	-33.8412	-0.23133	-2.57283e-17	-0.142618	-0.10062	1.82005	-0.158889
1.57676	3.18176	362.34	35.3094	-0.235027	-2.62059e-17	0.198305	-0.0331273	-3.77255	-0.367628	-21.0408	388.477	-34.0835	-0.231347	-2.57311e-17	-0.142405	-0.100137	1.84883	-0.162209
1.58674	3.53096	364.119	35.2374	-0.235071	-2.62105e-17	0.198401	-0.0369053	-3.80574	-0.368299	-20.853	388.678	-34.3108	-0.231417	-2.57394e-17	-0.14222	-0.099871	1.86149	-0.164324
1.59671	3.7468	365.496	35.173	-0.235098	-2.62132e-17	0.198477	-0.0393277	-3.83637	-0.369187	-20.8811	388.15	-34.5164	-0.231514	-2.57502e-17	-0.142071	-0.0993293	1.84639	-0.164192
1.60669	3.83565	366.42	35.121	-0.235119	-2.62157e-17	0.198544	-0.0404573	-3.86489	-0.370447	-21.126	386.878	-34.6888	-0.231613	-2.57604e-17	-0.14196	-0.0980279	1.79517	-0.160961
1.61667	3.83299	366.885	35.0684	-0.235143	-2.62188e-17	0.198615	-0.040711	-3.89677	-0.372469	-21.5551	384.94	-34.8194	-0.231732	-2.57718e-17	-0.141879	-0.0953946	1.7036	-0.154097
1.62665	3.80092	366.921	34.9761	-0.235169	-2.62225e-17	0.198692	-0.0407363	-3.93248	-0.374856	-22.0934	382.491	-34.9225	-0.231884	-2.57861e-17	-0.141814	-0.0910824	1.57686	-0.143972
1.63663	3.79429	366.603	34.8234	-0.235204	-2.62271e-17	0.198778	-0.0410861	-3.96972	-0.377081	-22.6802	379.737	-35.0098	-0.232069	-2.58032e-17	-0.141756	-0.0849999	1.42316	-0.131209
1.64661	3.86148	366.027	34.6152	-0.235232	-2.62312e-17	0.19891	-0.0423883	-4.01795	-0.379979	-23.2661	376.892	-35.0784	-0.23227	-2.58219e-17	-0.141716	-0.0782038	1.26684	-0.117908
1.65659	4.03623	365.298	34.3686	-0.235249	-2.62344e-17	0.199106	-0.0450554	-4.07772	-0.383648	-23.7654	374.159	-35.0979	-0.23247	-2.58402e-17	-0.141678	-0.0702052	1.1053	-0.103682
1.66657	4.31473	364.475	34.0842	-0.235287	-2.62403e-17	0.199352	-0.0491148	-4.14884	-0.387982	-24.1162	371.672	-35.0462	-0.232686	-2.58602e-17	-0.141646	-0.0618476	0.953176	-0.0898784
1.67655	4.68535	363.623	33.775	-0.235355	-2.625e-17	0.199652	-0.0547066	-4.24569	-0.394361	-24.2998	369.522	-34.9047	-0.232896	-2.58802e-17	-0.141645	-0.0544746	0.828383	-0.0782483
1.68653	5.12767	362.806	33.448	-0.235439	-2.62621e-17	0.199992	-0.0616768	-4.36391	-0.402319	-24.2847	367.758	-34.6663	-0.233088	-2.58988e-17	-0.141684	-0.0483094	0.731577	-0.0689613
1.69651	5.65612	362.073	33.1061	-0.235511	-2.62732e-17	0.200385	-0.0703616	-4.50416	-0.411836	-24.0791	366.389	-34.3232	-0.233255	-2.59151e-17	-0.14177	-0.0429949	0.654213	-0.0612865
1.70649	6.24052	361.434	32.7553	-0.235574	-2.62839e-17	0.200809	-0.0805712	-4.66646	-0.422903	-23.7271	365.417	-33.904	-0.23338	-2.59273e-17	-0.141912	-0.0391787	0.603384	-0.055983
1.71647	6.87242	360.901	32.3918	-0.235655	-2.62967e-17	0.201249	-0.0922356	-4.84371	-0.434734	-23.2851	364.822	-33.4235	-0.233462	-2.59355e-17	-0.142115	-0.0367335	0.575526	-0.0527273
1.72645	7.54311	360.512	32.0269	-0.235741	-2.63099e-17	0.201702	-0.105065	-5.02142	-0.446089	-22.7837	364.563	-32.9164	-0.233505	-2.59397e-17	-0.142368	-0.0350694	0.561148	-0.0506659
1.73643	8.21799	360.31	31.6699	-0.235812	-2.63212e-17	0.202164	-0.118594	-5.19965	-0.457029	-22.2787	364.576	-32.4121	-0.233531	-2.59422e-17	-0.14266	-0.0339679	0.555862	-0.0494182
1.74641	8.86357	360.302	31.3113	-0.235864	-2.63301e-17	0.202623	-0.132274	-5.37691	-0.467268	-21.8234	364.766	-31.9228	-0.233549	-2.5944e-17	-0.142989	-0.0334799	0.559598	-0.0489737
